<svg xmlns="http://www.w3.org/2000/svg" xmlns:xlink="http://www.w3.org/1999/xlink" width="64" zoomAndPan="magnify" viewBox="0 0 48 48" height="64" preserveAspectRatio="xMidYMid meet" version="1.0"><defs><clipPath id="f24c4c4ae7"><path d="M 4.421875 15 L 43.359375 15 L 43.359375 47 L 4.421875 47 Z M 4.421875 15 " clip-rule="nonzero"/></clipPath><clipPath id="e032e7fc18"><path d="M 4.421875 15 L 43.359375 15 L 43.359375 24 L 4.421875 24 Z M 4.421875 15 " clip-rule="nonzero"/></clipPath><clipPath id="28f22ed82f"><path d="M 4.421875 0 L 43.359375 0 L 43.359375 47.019531 L 4.421875 47.019531 Z M 4.421875 0 " clip-rule="nonzero"/></clipPath></defs><path fill="#024c89" d="M 30.203125 0.722656 C 27.871094 0.722656 25.980469 2.613281 25.980469 4.945312 C 25.980469 6.570312 26.898438 7.976562 28.246094 8.683594 L 28.246094 15.140625 L 32.15625 15.140625 L 32.15625 8.683594 C 33.503906 7.976562 34.421875 6.570312 34.421875 4.945312 C 34.421875 2.613281 32.53125 0.722656 30.203125 0.722656 Z M 30.203125 0.722656 " fill-opacity="1" fill-rule="nonzero"/><g clip-path="url(#f24c4c4ae7)"><path fill="#024c89" d="M 4.925781 15.140625 L 43.046875 15.140625 L 43.046875 46.523438 L 4.925781 46.523438 Z M 4.925781 15.140625 " fill-opacity="1" fill-rule="nonzero"/></g><g clip-path="url(#e032e7fc18)"><path fill="#c5a059" d="M 26.390625 20.277344 L 29.296875 23.1875 L 43.046875 23.1875 L 43.046875 15.140625 L 4.925781 15.140625 L 4.925781 20.277344 Z M 26.390625 20.277344 " fill-opacity="1" fill-rule="nonzero"/></g><path fill="#c5a059" d="M 31.933594 4.945312 C 31.933594 5.175781 31.890625 5.394531 31.800781 5.605469 C 31.714844 5.820312 31.589844 6.007812 31.425781 6.167969 C 31.261719 6.332031 31.078125 6.457031 30.863281 6.542969 C 30.652344 6.632812 30.429688 6.675781 30.203125 6.675781 C 29.972656 6.675781 29.75 6.632812 29.539062 6.542969 C 29.324219 6.457031 29.140625 6.332031 28.976562 6.167969 C 28.8125 6.007812 28.6875 5.820312 28.601562 5.605469 C 28.511719 5.394531 28.46875 5.175781 28.46875 4.945312 C 28.46875 4.714844 28.511719 4.492188 28.601562 4.28125 C 28.6875 4.070312 28.8125 3.882812 28.976562 3.71875 C 29.140625 3.558594 29.324219 3.433594 29.539062 3.34375 C 29.75 3.257812 29.972656 3.210938 30.203125 3.210938 C 30.429688 3.210938 30.652344 3.257812 30.863281 3.34375 C 31.078125 3.433594 31.261719 3.558594 31.425781 3.71875 C 31.589844 3.882812 31.714844 4.070312 31.800781 4.28125 C 31.890625 4.492188 31.933594 4.714844 31.933594 4.945312 Z M 31.933594 4.945312 " fill-opacity="1" fill-rule="nonzero"/><path fill="#024c89" d="M 24.515625 30.46875 C 24.34375 30.488281 24.164062 30.5 23.984375 30.5 C 21.636719 30.5 19.726562 28.589844 19.726562 26.242188 L 19.726562 13.859375 C 19.726562 12.957031 18.605469 12.535156 18.011719 13.21875 L 11.027344 21.207031 C 11.027344 21.207031 12.769531 23.816406 15.375 21.789062 L 15.8125 21.789062 L 15.8125 26.242188 C 16.046875 31.886719 20.351562 34.59375 24.488281 34.355469 C 24.613281 33.761719 24.683594 33.074219 24.683594 32.335938 C 24.683594 31.660156 24.625 31.027344 24.515625 30.46875 Z M 24.515625 30.46875 " fill-opacity="1" fill-rule="nonzero"/><path fill="#c5a059" d="M 31.316406 19.175781 C 31.316406 19.320312 31.289062 19.460938 31.230469 19.597656 C 31.175781 19.730469 31.097656 19.851562 30.992188 19.953125 C 30.890625 20.058594 30.769531 20.136719 30.636719 20.191406 C 30.5 20.25 30.359375 20.277344 30.214844 20.277344 C 30.066406 20.277344 29.925781 20.25 29.792969 20.191406 C 29.65625 20.136719 29.539062 20.058594 29.433594 19.953125 C 29.332031 19.851562 29.25 19.730469 29.195312 19.597656 C 29.140625 19.460938 29.109375 19.320312 29.109375 19.175781 C 29.109375 19.027344 29.140625 18.886719 29.195312 18.753906 C 29.25 18.617188 29.332031 18.5 29.433594 18.394531 C 29.539062 18.292969 29.65625 18.210938 29.792969 18.15625 C 29.925781 18.101562 30.066406 18.070312 30.214844 18.070312 C 30.359375 18.070312 30.5 18.101562 30.636719 18.15625 C 30.769531 18.210938 30.890625 18.292969 30.992188 18.394531 C 31.097656 18.5 31.175781 18.617188 31.230469 18.753906 C 31.289062 18.886719 31.316406 19.027344 31.316406 19.175781 Z M 31.316406 19.175781 " fill-opacity="1" fill-rule="nonzero"/><path fill="#024c89" d="M 35.898438 19.175781 C 35.898438 19.320312 35.867188 19.460938 35.8125 19.597656 C 35.757812 19.730469 35.675781 19.851562 35.574219 19.953125 C 35.472656 20.058594 35.351562 20.136719 35.214844 20.191406 C 35.082031 20.25 34.941406 20.277344 34.792969 20.277344 C 34.648438 20.277344 34.507812 20.25 34.371094 20.191406 C 34.238281 20.136719 34.117188 20.058594 34.015625 19.953125 C 33.910156 19.851562 33.832031 19.730469 33.777344 19.597656 C 33.71875 19.460938 33.691406 19.320312 33.691406 19.175781 C 33.691406 19.027344 33.71875 18.886719 33.777344 18.753906 C 33.832031 18.617188 33.910156 18.5 34.015625 18.394531 C 34.117188 18.292969 34.238281 18.210938 34.371094 18.15625 C 34.507812 18.101562 34.648438 18.070312 34.792969 18.070312 C 34.941406 18.070312 35.082031 18.101562 35.214844 18.15625 C 35.351562 18.210938 35.472656 18.292969 35.574219 18.394531 C 35.675781 18.5 35.757812 18.617188 35.8125 18.753906 C 35.867188 18.886719 35.898438 19.027344 35.898438 19.175781 Z M 35.898438 19.175781 " fill-opacity="1" fill-rule="nonzero"/><path fill="#024c89" d="M 40.476562 19.175781 C 40.476562 19.320312 40.449219 19.460938 40.394531 19.597656 C 40.339844 19.730469 40.257812 19.851562 40.15625 19.953125 C 40.050781 20.058594 39.933594 20.136719 39.796875 20.191406 C 39.664062 20.25 39.523438 20.277344 39.375 20.277344 C 39.230469 20.277344 39.089844 20.25 38.953125 20.191406 C 38.820312 20.136719 38.699219 20.058594 38.597656 19.953125 C 38.492188 19.851562 38.414062 19.730469 38.359375 19.597656 C 38.300781 19.460938 38.273438 19.320312 38.273438 19.175781 C 38.273438 19.027344 38.300781 18.886719 38.359375 18.753906 C 38.414062 18.617188 38.492188 18.5 38.597656 18.394531 C 38.699219 18.292969 38.820312 18.210938 38.953125 18.15625 C 39.089844 18.101562 39.230469 18.070312 39.375 18.070312 C 39.523438 18.070312 39.664062 18.101562 39.796875 18.15625 C 39.933594 18.210938 40.050781 18.292969 40.15625 18.394531 C 40.257812 18.5 40.339844 18.617188 40.394531 18.753906 C 40.449219 18.886719 40.476562 19.027344 40.476562 19.175781 Z M 40.476562 19.175781 " fill-opacity="1" fill-rule="nonzero"/><path fill="#c5a059" d="M 23.210938 27.816406 C 22.941406 27.816406 22.722656 28.035156 22.722656 28.304688 C 22.722656 28.574219 22.941406 28.792969 23.210938 28.792969 C 23.496094 28.792969 24.195312 30.035156 24.195312 32.335938 C 24.195312 34.640625 23.496094 35.882812 23.210938 35.882812 C 22.570312 35.894531 22.566406 36.84375 23.210938 36.859375 C 25.820312 36.84375 25.820312 27.832031 23.210938 27.816406 Z M 23.210938 27.816406 " fill-opacity="1" fill-rule="nonzero"/><path fill="#f8f9fa" d="M 30.210938 7.167969 C 31.433594 7.167969 32.433594 6.171875 32.433594 4.945312 C 32.308594 2 28.109375 2 27.988281 4.945312 C 27.988281 6.171875 28.984375 7.167969 30.210938 7.167969 Z M 30.210938 3.703125 C 30.894531 3.703125 31.453125 4.261719 31.453125 4.945312 C 31.390625 6.59375 29.03125 6.59375 28.96875 4.945312 C 28.96875 4.261719 29.523438 3.703125 30.210938 3.703125 Z M 30.210938 3.703125 " fill-opacity="1" fill-rule="nonzero"/><path fill="#f8f9fa" d="M 28.632812 19.175781 C 28.632812 20.054688 29.34375 20.769531 30.222656 20.769531 C 32.332031 20.679688 32.332031 17.671875 30.222656 17.585938 C 29.34375 17.585938 28.632812 18.300781 28.632812 19.175781 Z M 30.835938 19.175781 C 30.816406 19.984375 29.628906 19.984375 29.609375 19.175781 C 29.628906 18.367188 30.816406 18.367188 30.835938 19.175781 Z M 30.835938 19.175781 " fill-opacity="1" fill-rule="nonzero"/><path fill="#f8f9fa" d="M 34.804688 20.769531 C 35.679688 20.769531 36.394531 20.054688 36.394531 19.175781 C 36.308594 17.066406 33.300781 17.066406 33.210938 19.175781 C 33.210938 20.054688 33.925781 20.769531 34.804688 20.769531 Z M 34.804688 18.5625 C 35.613281 18.585938 35.613281 19.769531 34.804688 19.789062 C 33.996094 19.769531 33.996094 18.585938 34.804688 18.5625 Z M 34.804688 18.5625 " fill-opacity="1" fill-rule="nonzero"/><path fill="#f8f9fa" d="M 40.976562 19.175781 C 40.976562 18.300781 40.261719 17.585938 39.386719 17.585938 C 37.273438 17.671875 37.273438 20.679688 39.386719 20.769531 C 40.261719 20.769531 40.976562 20.054688 40.976562 19.175781 Z M 38.773438 19.175781 C 38.792969 18.367188 39.976562 18.367188 40 19.175781 C 39.976562 19.984375 38.792969 19.984375 38.773438 19.175781 Z M 38.773438 19.175781 " fill-opacity="1" fill-rule="nonzero"/><g clip-path="url(#28f22ed82f)"><path fill="#f8f9fa" d="M 26.195312 20.769531 L 28.960938 23.539062 C 29.054688 23.628906 29.175781 23.679688 29.308594 23.679688 L 43.054688 23.679688 C 43.324219 23.679688 43.542969 23.460938 43.542969 23.191406 L 43.542969 15.140625 C 43.546875 14.875 43.320312 14.644531 43.046875 14.652344 L 34.574219 14.652344 C 34.304688 14.652344 34.085938 14.871094 34.085938 15.140625 C 34.085938 15.414062 34.304688 15.632812 34.574219 15.632812 L 42.566406 15.632812 L 42.566406 22.703125 L 29.507812 22.703125 L 26.746094 19.9375 C 26.652344 19.84375 26.527344 19.792969 26.398438 19.792969 L 20.222656 19.792969 L 20.222656 15.632812 L 32.167969 15.632812 C 32.4375 15.632812 32.65625 15.414062 32.65625 15.140625 C 32.65625 15.140625 32.65625 8.972656 32.65625 8.96875 C 36.691406 6.484375 34.960938 0.277344 30.210938 0.238281 C 25.460938 0.277344 23.730469 6.484375 27.765625 8.96875 L 27.765625 14.652344 L 20.222656 14.652344 L 20.222656 13.863281 C 20.246094 12.53125 18.515625 11.875 17.652344 12.898438 C 17.367188 13.222656 16.386719 14.34375 16.121094 14.652344 L 4.933594 14.652344 C 4.664062 14.652344 4.441406 14.878906 4.445312 15.140625 C 4.445312 15.140625 4.445312 46.527344 4.445312 46.527344 C 4.445312 46.796875 4.664062 47.015625 4.933594 47.015625 L 43.054688 47.015625 C 43.324219 47.015625 43.542969 46.796875 43.542969 46.527344 L 43.542969 25.535156 C 43.523438 24.886719 42.585938 24.886719 42.566406 25.535156 C 42.566406 25.535156 42.566406 46.035156 42.566406 46.035156 L 5.421875 46.035156 L 5.421875 20.769531 L 10.773438 20.769531 L 10.667969 20.890625 C 10.523438 21.054688 10.507812 21.300781 10.632812 21.480469 C 10.667969 21.535156 11.511719 22.78125 12.953125 23.015625 C 13.742188 23.144531 14.542969 22.945312 15.335938 22.429688 C 15.335938 22.453125 15.332031 26.242188 15.335938 26.265625 C 15.433594 31.144531 19.097656 34.8125 23.859375 34.855469 C 23.640625 35.53125 23.375 35.882812 23.222656 35.882812 C 22.953125 35.882812 22.734375 36.101562 22.734375 36.375 C 22.734375 36.644531 22.953125 36.863281 23.222656 36.863281 C 24.085938 36.863281 24.671875 35.835938 24.964844 34.484375 C 25.25 33.132812 25.253906 31.710938 25 30.351562 C 24.71875 28.921875 24.121094 27.816406 23.222656 27.816406 C 22.953125 27.816406 22.734375 28.035156 22.734375 28.308594 C 22.734375 28.578125 22.953125 28.796875 23.222656 28.796875 C 23.386719 28.796875 23.691406 29.214844 23.917969 30.011719 C 21.875 29.96875 20.222656 28.296875 20.222656 26.242188 L 20.222656 20.769531 Z M 26.480469 4.945312 C 26.683594 -0.00390625 33.738281 -0.00390625 33.941406 4.945312 C 33.941406 6.335938 33.175781 7.605469 31.941406 8.25 C 31.777344 8.335938 31.675781 8.503906 31.675781 8.683594 L 31.675781 14.652344 L 28.742188 14.652344 L 28.742188 8.683594 C 28.742188 8.503906 28.644531 8.335938 28.480469 8.25 C 27.246094 7.605469 26.480469 6.335938 26.480469 4.945312 Z M 23.996094 30.992188 C 24.035156 30.992188 24.074219 30.992188 24.117188 30.992188 C 24.242188 31.925781 24.234375 32.96875 24.085938 33.882812 C 19.746094 33.933594 16.417969 30.703125 16.3125 26.234375 L 16.3125 21.789062 C 16.3125 21.519531 16.09375 21.300781 15.824219 21.300781 C 15.617188 21.3125 15.25 21.25 15.085938 21.40625 C 13.859375 22.402344 12.578125 22.214844 11.679688 21.222656 C 11.75 21.125 12.277344 20.574219 12.300781 20.46875 C 12.414062 20.214844 12.261719 19.890625 11.992188 19.816406 C 11.945312 19.800781 11.898438 19.796875 11.851562 19.792969 C 11.851562 19.792969 5.421875 19.792969 5.421875 19.792969 L 5.421875 15.632812 L 15.265625 15.632812 L 13.007812 18.214844 C 12.828125 18.417969 12.851562 18.726562 13.054688 18.90625 C 13.257812 19.082031 13.566406 19.0625 13.742188 18.859375 L 16.707031 15.464844 L 18.390625 13.542969 C 18.59375 13.304688 18.855469 13.378906 18.929688 13.40625 C 19.003906 13.433594 19.246094 13.546875 19.246094 13.863281 C 19.246094 13.863281 19.246094 15.140625 19.246094 15.140625 C 19.246094 17.878906 19.246094 23.488281 19.246094 26.242188 C 19.234375 28.871094 21.429688 31.011719 23.996094 30.992188 Z M 23.996094 30.992188 " fill-opacity="1" fill-rule="nonzero"/></g></svg>